<svg width="296" height="598" viewBox="0 0 296 598" xmlns="http://www.w3.org/2000/svg" xmlns:xlink="http://www.w3.org/1999/xlink" xmlns:sketch="http://www.bohemiancoding.com/sketch/ns"><title>nexus</title><desc>Created with Sketch Beta.</desc><defs><path id="a" d="M50.5 35c1.933 0 3.5-1.567 3.5-3.5s-1.567-3.5-3.5-3.5-3.5 1.567-3.5 3.5 1.567 3.5 3.5 3.5z"/><path id="b" d="M150.5 38c4.142 0 7.5-3.358 7.5-7.5 0-4.142-3.358-7.5-7.5-7.5-4.142 0-7.5 3.358-7.5 7.5 0 4.142 3.358 7.5 7.5 7.5z"/></defs><g sketch:type="MSLayerGroup" fill="none"><path d="M148 0c64.551-.006 103.5 5 117.815 6.614 22.564 2.544 30.119 12.719 30.126 23.449.018 24.721.122 493.952 0 529.815-.065 19.078-7.521 26.709-27.578 30.525-14.216 2.704-75.935 7.597-120.177 7.597-44.242 0-106.333-4.893-120.549-7.597-20.057-3.816-27.513-11.447-27.578-30.525-.122-35.862-.018-505.094 0-529.815.008-10.731 7.562-20.905 30.126-23.449 14.315-1.614 53.264-6.608 117.815-6.614z" fill="#000" sketch:type="MSShapeGroup"/><g opacity=".5" transform="translate(-102 -102) translate(100 102)"><use fill="#fff" sketch:type="MSShapeGroup" xlink:href="#a"/><use xlink:href="#a"/><use xlink:href="#a"/></g><g opacity=".5" transform="translate(-102 -102) translate(100 102)"><use fill="#fff" sketch:type="MSShapeGroup" xlink:href="#b"/><use xlink:href="#b"/></g></g></svg>